<svg width="34" height="36" viewBox="0 0 34 36" fill="none" xmlns="http://www.w3.org/2000/svg">
<path d="M18.9267 30.6436C19.9025 30.4893 20.8335 30.634 21.6892 31.0352C28.1657 33.2585 31.3693 23.3093 24.9502 21.0595C23.5231 20.3572 22.9713 19.956 22.5408 18.4159C21.8886 16.0827 19.0078 14.7803 16.5904 15.1695C14.173 15.5588 11.8129 17.7052 11.8795 20.1327C11.9234 21.735 11.5155 22.2908 10.3638 23.4083C4.91259 27.5697 10.8972 36.04 16.4107 31.8852C17.1082 31.2339 17.9517 30.8034 18.9267 30.6436Z" fill="#F7AF4A"/>
<path d="M8.07615 22.6528C6.23044 24.0032 4.06539 23.2429 3.12469 21.118C2.18399 18.993 2.74708 16.1888 4.67018 14.9581C7.27759 13.2888 11.1302 20.4188 8.07615 22.6528Z" fill="#F7AF4A"/>
<path d="M20.3325 12.4911C22.5401 12.6904 23.8707 10.6919 23.487 8.11514C23.1033 5.53842 21.1466 3.19987 18.9416 3.15981C15.9514 3.10578 16.6807 12.1608 20.3325 12.4911Z" fill="#F7AF4A"/>
<path d="M12.2481 13.7929C10.204 14.6769 8.34736 13.1916 7.95325 10.6165C7.55914 8.0415 8.73362 5.19872 10.8221 4.46728C13.6544 3.47564 15.6292 12.3301 12.2481 13.7929Z" fill="#F7AF4A"/>
<path d="M26.9182 19.6183C29.0744 20.3243 30.9125 18.9193 31.1822 16.5995C31.4518 14.2797 30.0888 11.7856 27.8941 11.218C24.9184 10.4478 23.3506 18.4506 26.9182 19.6183Z" fill="#F7AF4A"/>
</svg>
