<svg width="161" height="159" viewBox="0 0 161 159" fill="none" xmlns="http://www.w3.org/2000/svg">
<g clip-path="url(#clip0_86_522)">
<path fill-rule="evenodd" clip-rule="evenodd" d="M73.381 60.7443C73.1741 61.4606 73.8418 63.7414 74.0769 64.6557C74.5565 66.4464 74.5471 66.5407 76.0612 67.3041C79.08 68.8215 76.4186 71.9318 76.3057 74.1655C77.2273 73.9676 78.1207 73.3361 78.5721 74.5708C78.8167 75.24 78.7226 76.7668 78.8637 77.6056C79.1552 79.3964 79.5596 81.4605 79.9546 83.2418C80.2931 84.7592 81.9012 86.1353 82.9451 87.0024C83.8385 87.7564 85.5971 89.4623 86.0673 90.4802C87.3839 93.336 84.2523 100.942 86.9231 101.932C88.5312 102.525 91.4935 100.857 92.6032 102.459C93.064 103.129 92.9418 104.354 93.3462 105.023C93.8916 105.947 94.879 105.438 95.7442 105.928C96.8821 106.578 96.6564 109.472 97.5404 110.876C98.6971 112.704 99.0263 112.638 99.9009 115.127C100.503 116.842 100.992 118.52 101.584 120.188C102.478 122.695 102.948 123.081 105.036 123.364C108.562 123.835 105.684 126.333 111.412 130.329C113.339 131.677 113.443 131.564 114.346 134.137C114.863 135.598 115.587 137.709 115.785 139.292C116.283 139.028 116.311 138.897 116.706 138.406C117.524 137.417 118.22 136.587 118.85 135.4C120.524 132.186 123.722 124.231 126.882 122.921C129.515 121.828 135.458 120.866 135.609 117.945C135.844 113.449 132.091 107.577 137.922 109.443C137.386 107.002 135.251 103.279 136.248 100.678C137.471 100.395 139.013 100.537 140.32 100.697C140.358 98.5951 140.452 93.9392 141.994 93.0438C143.057 93.1098 145.239 94.6084 146.01 93.3548C146.207 92.5537 144.543 89.3115 144.27 88.0014C143.8 85.73 144.834 84.0806 144.9 81.6772C144.966 79.3304 144.674 77.0119 144.618 74.6556C144.514 70.7537 147.119 71.272 147.505 70.2918C147.787 69.585 145.126 65.2494 145.116 63.5435C145.116 62.2711 145.718 62.4502 146.565 62.0921C146.132 61.0176 144.025 57.9451 144.599 56.503C144.994 55.5134 146.395 55.4192 146.602 54.5238C146.762 53.8263 146.188 51.979 145.803 51.5266C143.499 51.9319 145.389 55.9187 137.424 55.1364C133.333 54.7311 132.562 52.111 132.374 48.0488C132.223 44.7406 132.458 41.489 127.277 40.9612C123.458 40.5748 121.935 44.6935 121.794 47.4173C121.954 48.0017 122.565 48.718 122.866 49.3589C124.032 51.8565 124.53 53.8452 123.778 56.8141C123.252 58.8781 122.763 59.585 121.418 60.5369C119.951 61.5831 119.01 61.9507 116.828 62.0544C113.029 64.109 111.271 61.5171 109.531 62.2617C106.926 63.3739 104.434 62.8366 102.402 61.2532C101.321 60.4144 101.528 60.9045 100.004 60.8385C99.0169 60.8008 98.2175 60.3296 97.5592 60.3107C95.2928 59.9149 93.9574 59.3494 92.9512 58.011C90.4779 54.7123 90.7318 51.2816 92.7161 47.8037L95.321 43.7227C94.9825 42.6388 93.6189 40.3014 93.0264 39.2741C90.0453 34.0809 86.4058 36.6068 85.4372 39.1893C84.9764 40.4145 84.9106 43.5059 84.5814 45.0611C84.0736 47.4362 83.5093 47.8226 81.2994 48.5295C78.6662 49.3777 78.5345 48.963 77.6223 51.5926C76.6913 54.2505 75.2713 59.8018 73.3716 60.7254L73.381 60.7443Z" fill="#FFFEF8"/>
<path fill-rule="evenodd" clip-rule="evenodd" d="M120.59 28.963C123.139 28.2561 125.273 30.028 125.8 31.9979C126.505 34.6274 124.709 36.7292 122.744 37.2476C117.421 38.6613 114.929 30.537 120.59 28.963ZM96.9856 27.6435C99.4871 27.3702 101.406 29.1327 101.688 31.2721C102.44 37.0402 93.8634 37.9827 93.2051 32.4597C92.8947 29.849 94.7286 27.898 96.9856 27.6435ZM101.989 21.291C103.202 20.9423 104.481 22.6671 104.659 24.6369C104.782 25.9376 104.481 26.3146 103.616 26.8235C103.098 27.1251 102.186 27.587 101.481 27.7283C100.522 27.9263 98.321 26.8612 98.9887 24.5709C99.3648 23.2609 100.86 21.6209 101.998 21.291H101.989ZM116.669 22.1016C117.816 21.5644 117.938 22.5823 118.418 23.242C118.954 23.996 119.377 23.8452 119.753 24.9479C120.468 27.0215 119.791 28.0676 117.797 28.718C116.763 29.0573 116.189 29.1892 115.644 28.2656C115.098 27.3325 114.318 24.505 114.985 23.5248C115.202 23.2043 116.321 22.2524 116.659 22.0922L116.669 22.1016ZM71.4061 0.282682C71.03 1.23461 69.6475 2.45986 69.262 3.63799C68.867 4.83496 69.6852 5.65494 70.24 6.52204L70.8513 7.30432C70.3152 0.933007 74.6694 2.51641 78.4029 4.30716C80.6128 5.37219 83.1802 6.40894 84.8918 8.12429C89.1801 12.4315 85.8698 16.7576 83.0109 19.3966C81.2523 21.0177 81.0454 20.5276 80.2555 23.5153C79.7477 25.438 79.616 27.5021 78.4875 28.586C78.7696 29.095 79.1364 29.6416 79.2963 30.3296C79.5031 30.9988 78.9859 32.1298 78.7508 32.7236C78.3182 33.8169 77.9985 33.7132 77.3872 34.4012C76.5032 35.4097 76.8512 37.191 75.2901 38.3126C75.3653 39.519 75.5628 39.0949 75.5534 41.1778C75.5534 43.9299 75.4029 43.9771 74.8575 46.5689C74.7728 46.9648 74.3685 48.8215 74.2274 49.1137L72.7321 56.4369L72.6193 60.1787C72.6193 60.1787 72.6851 60.2069 72.6945 60.2541L72.9672 60.5557C73.2776 60.829 72.7133 60.763 73.3622 60.7253C75.2619 59.7922 76.6819 54.2409 77.6129 51.5925C78.5345 48.9629 78.6662 49.3776 81.2899 48.5293C83.4999 47.8225 84.0642 47.436 84.572 45.0609C84.9012 43.5058 84.967 40.405 85.4278 39.1891C86.3964 36.6067 90.0359 34.0714 93.017 39.274C93.6095 40.3013 94.9731 42.6387 95.3116 43.7226C95.5749 43.5529 95.3398 43.7603 95.6314 43.4587C95.7066 43.3833 95.8006 43.2513 95.8665 43.1571C96.1392 42.7895 96.0922 42.7895 96.4495 42.5162C97.0232 41.0742 97.9918 40.3296 98.9134 39.4625C99.741 38.6802 101.058 37.7377 102.487 37.4738C105.995 36.8329 106.71 41.6585 110.424 39.7452C112.249 38.8121 114.665 36.0318 117.684 40.0939C118.521 41.2155 119.104 42.1675 119.828 43.4964C120.158 44.0902 121.474 46.8423 121.502 47.3889L121.775 47.4172C121.916 44.6934 123.44 40.584 127.258 40.961C132.439 41.4794 132.204 44.7405 132.355 48.0487C132.543 52.1108 133.314 54.731 137.405 55.1363C145.37 55.9185 143.48 51.9318 145.784 51.5265C146.066 51.2814 146.518 51.0835 146.931 50.9044L148.248 50.3107C148.06 49.6415 145.248 42.1015 144.881 41.7245C143.969 41.3381 143.687 41.0082 142.493 40.8102C140.076 40.4144 139.935 38.0487 139.493 37.1722C139.126 36.4559 138.543 35.8244 138.562 34.9196L138.844 34.7405C139.041 33.3928 138.891 32.0827 139.549 30.6784C139.963 29.8113 139.925 29.9244 140.283 29.783C138.618 26.5408 137.969 20.0752 137.132 15.9942C136.756 14.1752 135.938 13.4494 138.533 11.6493C139.192 11.1874 139.775 10.735 140.527 10.3486C143.687 8.71807 147.646 9.00082 150.956 7.29489C152.724 6.38067 154.144 4.65589 154.887 4.48624C156.58 4.09039 158.122 5.99424 158.216 7.59649C158.687 6.75767 158.658 5.21196 158.395 4.18464C158.113 3.08191 158.263 3.43064 158.348 3.26099C156.166 0.876458 154.426 1.08381 151.85 2.76146C148.85 4.71244 147.759 4.14694 144.317 5.01404C140.725 5.91884 136.841 6.45607 134.537 9.90562C134.048 10.6408 133.135 12.2619 133.117 13.374C132.016 12.7897 130.709 12.375 129.458 11.8755C128.885 11.6493 128.104 11.4419 127.559 11.2722C124.436 10.292 118.747 10.3957 115.785 11.1026C113.048 11.7529 113.245 12.4127 111.985 11.6587C110.838 10.9706 109.803 10.5182 108.271 10.2166C102.685 9.1045 100.202 10.1884 95.2082 11.5267C93.553 11.9697 93.0922 11.7812 91.2866 10.8198C90.459 10.3769 89.7819 9.79252 89.0578 9.2176C88.2302 8.56727 86.3588 6.81422 85.7569 6.04137C84.7037 4.67474 81.9106 2.02631 80.2931 1.19691C77.8198 -0.066044 74.171 -0.273394 71.3873 0.273257L71.4061 0.282682Z" fill="#F7AF4A"/>
<path fill-rule="evenodd" clip-rule="evenodd" d="M29.059 70.697C28.871 70.9703 24.9494 73.1757 24.2817 73.5904L22.6642 74.6178C19.8335 76.4745 13.401 80.7063 10.9277 83.5055C9.58293 85.0324 7.39175 87.9353 6.86511 89.6978C7.26949 90.2444 7.03439 93.8354 7.02498 94.5234C7.00618 96.1351 7.01558 97.7467 7.09081 99.349C7.16605 100.885 7.26009 102.327 7.54222 103.788C7.87136 105.522 8.37919 106.078 8.89642 107.436C9.23497 107.963 10.6738 109.528 11.1252 109.848C11.8587 110.357 13.3916 111.262 13.9089 111.762C16.2787 111.338 16.9464 109.33 19.4762 109.83C20.8962 110.112 21.2818 110.188 22.5043 109.519C23.2096 109.132 24.2347 108.265 24.5356 107.69C24.7331 107.869 24.6108 107.681 24.7143 107.992C25.0905 107.294 25.6265 101.95 25.6453 100.734C25.6735 99.5469 25.3632 93.2322 25.4854 92.8834C26.1061 94.7213 26.5669 95.3057 27.3475 97.9635C28.5888 102.167 30.0935 113.175 29.1155 116.427C33.3191 117.379 32.4634 114.193 35.5573 116.993C36.8081 118.124 38.0683 120.508 40.6826 120.508C43.7014 120.508 44.5948 117.982 46.7766 121.385C49.0806 124.976 50.4536 122.525 52.5225 122.11C52.0523 121.507 51.742 120.819 51.4975 120.084C51.2436 119.321 51.0367 118.463 50.9144 117.643C50.2843 113.241 51.9677 106.097 53.604 102.478C53.4912 102.12 52.0805 100.244 51.6573 99.5375C51.0649 98.5573 50.416 97.5111 49.8517 96.4461C48.648 94.1652 47.67 92.4216 46.9835 89.5187C45.7045 84.137 45.4694 77.5301 45.3283 71.762L44.8675 71.6772C44.7547 71.2436 44.9992 71.1211 45.3095 70.8478V66.0033C44.7264 65.8431 41.6607 65.155 41.388 65.0137C39.3284 65.8525 37.1184 66.8233 35.153 67.8129C34.3254 68.2276 29.4822 70.6498 29.0496 70.6875L29.059 70.697Z" fill="#F7AF4A"/>
<path fill-rule="evenodd" clip-rule="evenodd" d="M55.2121 98.1899L58.1462 91.8657C58.0521 93.1287 57.6572 94.7781 57.4503 96.1164C57.2528 97.4265 57.2058 99.4152 56.9236 100.395L56.886 104.109C57.0929 108.397 57.5725 111.338 58.6352 115.193C59.0678 116.776 59.6885 118.435 60.2527 119.933C60.7512 121.243 61.7668 123.194 62.0771 124.476C62.8013 124.146 63.1774 123.666 64.1179 123.317C65.2087 122.912 65.8576 122.997 66.6664 123.571C67.9172 124.448 69.1115 125.315 70.6726 125.994C72.055 126.135 72.4406 125.881 73.0707 125.136L74.7446 123.383C76.1458 122.195 78.6662 123.015 79.6536 124.062L81.1677 125.852C81.8354 126.663 82.3056 126.908 83.5093 126.21C85.7946 124.9 86.5093 123.374 87.0171 122.912L86.4717 108.491L90.3838 108.454C90.4967 103.157 86.5845 106.974 83.2084 105.278C81.967 104.655 81.2053 103.694 81.2805 101.828C81.3464 100.15 82.0987 98.812 82.315 97.2945C81.6003 97.3605 81.9859 97.549 81.2241 96.0127L78.9295 91.4322C77.9326 89.4529 76.7289 87.2852 75.8731 85.3059C74.5847 84.8252 74.6129 84.3257 74.6129 82.7517L73.87 81.4322C73.9453 83.7319 72.3653 82.9214 71.7635 81.5548C71.3873 80.7065 70.8607 78.8592 70.146 78.5105C68.8012 79.2833 68.1523 82.8271 66.4125 82.7612C65.5379 81.5453 65.9517 78.7932 64.5316 78.4728C62.4721 78.0015 61.5129 80.2918 60.3844 80.273C60.1681 79.698 60.1587 79.453 60.1023 78.8121C60.0835 78.633 60.0646 78.2654 60.0176 78.1052C59.585 76.6538 57.1211 78.0581 55.513 77.7282C55.4284 76.4653 55.2873 75.4756 53.8391 76.3616C52.2027 77.3606 52.3062 77.0496 52.0899 75.4662C51.1118 75.3719 49.9363 75.683 49.1464 75.1458C49.2404 79.5567 49.673 84.2315 50.5288 88.4067C50.9896 90.6311 51.6855 91.9223 52.5507 93.6565C53.1526 94.8629 54.488 97.3322 55.2215 98.2182L55.2121 98.1899Z" fill="#F7AF4A"/>
<path fill-rule="evenodd" clip-rule="evenodd" d="M145.803 51.5359C146.188 51.9883 146.762 53.8356 146.602 54.5331C146.395 55.4284 144.994 55.5227 144.599 56.5123C144.025 57.9449 146.123 61.0269 146.565 62.1013C145.718 62.4595 145.107 62.2804 145.116 63.5528C145.126 65.2587 147.787 69.6036 147.505 70.3011C147.11 71.2907 144.514 70.7724 144.618 74.6649C144.674 77.0117 144.966 79.3303 144.9 81.6865C144.834 84.0899 143.8 85.7298 144.27 88.0107C144.543 89.3208 146.207 92.563 146.01 93.3641C145.229 94.6176 143.047 93.1191 141.994 93.0531C140.452 93.9485 140.367 98.6138 140.32 100.706C139.013 100.546 137.471 100.405 136.248 100.687C135.242 103.289 137.377 107.012 137.922 109.453C132.091 107.586 135.844 113.458 135.609 117.954C135.458 120.885 129.515 121.837 126.882 122.93C123.722 124.24 120.524 132.195 118.85 135.409C118.23 136.606 117.524 137.435 116.706 138.416C116.302 138.896 116.283 139.038 115.785 139.302C115.587 137.718 114.854 135.607 114.346 134.146C113.443 131.573 113.339 131.686 111.412 130.338C105.684 126.342 108.562 123.845 105.036 123.373C102.948 123.091 102.478 122.714 101.584 120.197C100.992 118.529 100.493 116.851 99.9008 115.136C99.0262 112.648 98.6971 112.714 97.5404 110.885C96.6564 109.481 96.8821 106.587 95.7442 105.937C94.8884 105.447 93.8916 105.947 93.3461 105.032C92.9417 104.354 93.064 103.138 92.6032 102.469C91.4935 100.857 88.5312 102.525 86.923 101.941C84.2522 100.951 87.3838 93.3453 86.0672 90.4895C85.5876 89.4622 83.8385 87.7562 82.9451 87.0117C81.9012 86.1351 80.2931 84.7685 79.9545 83.2511C79.5595 81.4603 79.1552 79.3962 78.8636 77.6149C78.7226 76.7667 78.8166 75.2492 78.5721 74.5801C78.1207 73.3454 77.2367 73.9769 76.3057 74.1748C76.4185 71.941 79.0799 68.8308 76.0612 67.3134C74.5471 66.5499 74.5565 66.4557 74.0769 64.6649C73.8324 63.7507 73.1741 61.4793 73.381 60.7536C72.7321 60.7913 73.2963 60.8478 72.986 60.5839L72.7133 60.2823C72.7039 60.2352 72.6663 60.2258 72.638 60.2069C72.5816 62.0259 71.2932 66.3991 72.0644 67.8694C72.9296 68.2087 73.4374 67.8883 73.5691 69.1418C73.6443 69.8487 73.4186 70.9609 73.2117 71.5641C73.033 72.516 71.6224 76.729 73.7289 76.9269C74.5471 77.0023 74.5471 76.3143 75.4875 76.4933C75.6944 77.728 74.8668 81.253 74.6129 82.7421C74.6129 84.3161 74.5941 84.8156 75.8731 85.2963C76.8417 85.3811 76.8605 84.9287 77.6693 85.0324C78.2618 85.645 78.9765 87.0117 79.4561 87.728C81.5532 90.8759 83.4999 93.6186 82.3244 97.2943C82.1081 98.8118 81.3463 100.15 81.2899 101.828C81.2241 103.694 81.9764 104.655 83.2178 105.277C86.5939 106.974 90.506 103.157 90.3932 108.454C90.365 109.575 90.2521 111.733 91.7756 111.074C92.321 110.838 92.5373 110.48 92.8853 110.056C93.2897 109.566 93.4872 109.066 93.9762 109.217C94.7661 110.866 92.6596 114.061 93.8539 115.409C94.7097 115.306 95.6595 113.524 96.6188 114.759C97.1924 115.494 97.3899 117.2 97.5404 118.34C97.8977 121.121 98.2269 123.534 100.136 124.74C102.158 126.022 104.396 123.468 105.6 127.992C106.427 131.074 106.39 130.282 108.524 131.809C109.098 132.214 109.484 132.403 109.794 132.864C112.766 134.231 113.819 138.849 114.412 139.669C114.75 140.14 115.004 140.15 115.305 140.489C116.189 140.461 117.205 140.32 117.995 139.98C118.916 139.594 119.358 139.104 120.007 138.746C120.346 138.284 120.609 138.142 120.947 137.501L123.157 133.232C124.201 131.262 125.104 129.434 126.11 127.454C127.352 125.032 128.367 124.947 131.01 123.75C133.211 122.761 135.289 121.554 136.859 120.838C137.997 119.688 140.076 120.15 138.392 114.552C138.167 113.798 137.8 113.119 137.649 112.403C138.618 113.119 139.088 112.987 139.831 112.082C141.693 109.811 139.549 105.626 139.37 103.402C139.427 103.43 142.417 106.559 143.452 102.742C143.941 100.942 143.696 97.9447 144.251 96.5309C144.881 96.7194 145.323 97.3038 146.273 97.5017C147.279 97.709 148.032 97.2095 148.351 96.6629C149.085 95.4376 148.351 92.7232 147.994 91.4131C146.856 87.3227 146.339 87.4169 147.909 84.448C148.323 83.6658 148.521 83.1945 148.831 82.318C149.941 79.1889 146.565 73.0815 148.662 72.3558C149.564 72.0447 150.26 72.3369 150.213 70.8383C150.148 68.68 147.646 65.5226 147.796 64.1654L148.859 63.9769C149.188 63.4774 150.571 63.0156 149.198 60.5651C146.706 56.1165 148.079 57.3417 149.47 55.0326C150.119 53.9487 148.756 51.2531 148.257 50.3201L146.941 50.9138C146.536 51.0929 146.075 51.2908 145.793 51.5359H145.803Z" fill="#E4D0B5"/>
<path fill-rule="evenodd" clip-rule="evenodd" d="M55.3438 53.1194L54.0272 53.4964C53.4441 53.5435 52.9269 53.6943 52.2028 53.7885C48.5539 54.2409 44.2938 54.0336 40.3441 54.6085C39.6388 54.7122 39.0087 54.9101 38.3692 54.9478C37.1372 55.862 35.8394 55.7489 34.805 57.1344C33.7987 58.4728 33.7611 60.2729 34.9649 61.3474C37.2407 63.3738 41.5666 62.648 44.9145 62.6009V62.7329L45.3847 62.7611L45.3095 66.0033V70.8478L45.3471 71.762C45.4882 77.5301 45.7233 84.1371 47.0022 89.5188C47.6982 92.4217 48.6668 94.1653 49.8705 96.4462C50.4348 97.5112 51.0837 98.5574 51.6761 99.5376C52.0993 100.235 53.51 102.12 53.6228 102.478C54.7513 103.449 54.5632 104.354 56.8955 104.109L56.9331 100.395C56.5287 100.188 56.2936 99.7732 56.0303 99.415C55.7388 99.0192 55.4566 98.6139 55.2309 98.1804C54.5068 97.3038 53.162 94.8251 52.5601 93.6186C51.6949 91.8844 50.999 90.5932 50.5382 88.3689C49.673 84.1936 49.2498 79.5188 49.1558 75.1079C49.1182 71.1965 48.9301 66.9836 49.0994 62.9402L49.1558 61.2908C51.2247 60.7348 53.2372 59.9431 55.419 59.3587C57.1212 58.9063 60.4032 57.9261 62.1336 57.8507L69.61 72.7517L73.8795 81.3944L74.6224 82.7139C74.8857 81.2248 75.7133 77.6904 75.497 76.4651C74.5566 76.2955 74.5566 76.9835 73.7384 76.8987C71.6319 76.6913 73.0425 72.4878 73.2212 71.5358C72.9108 71.2437 72.8168 70.9703 72.6381 70.5933L69.5253 64.3069C68.4438 62.1391 67.1837 59.2645 65.9893 57.2569C67.4188 56.814 71.077 56.5972 72.7604 56.437L74.2556 49.1137C73.7948 48.9912 74.0393 49.0289 73.6632 48.7744C73.4657 48.6425 73.2118 48.4823 72.9955 48.3786C72.5817 48.1712 72.0456 47.9262 71.5284 47.9167C72.1585 48.9252 68.8858 54.5708 60.2434 54.0524C59.2841 53.9959 55.8798 53.5529 55.3626 53.1005L55.3438 53.1194Z" fill="#5DA272"/>
<path fill-rule="evenodd" clip-rule="evenodd" d="M103.945 47.4833C107.001 47.1534 111.468 47.0686 112.756 49.3023C114.035 51.5172 112.343 54.6086 109.427 55.815C106.662 56.9555 103.268 56.1637 101.547 53.7886C99.5999 51.0837 100.512 47.8603 103.935 47.4833H103.945ZM96.4777 42.5258C95.7441 44.3448 95.3304 45.0611 94.973 47.2665C94.6533 49.1704 94.4558 51.0554 94.6721 52.931C94.6345 55.8527 97.1642 58.1336 98.8475 59.1515C102.703 61.4889 104.603 58.7933 106.662 58.2184C107.001 59.0195 110.443 61.8942 112.935 61.9696C115.201 62.0355 118.86 59.7453 119.725 58.6897C119.744 58.652 119.781 58.6143 119.8 58.5954C119.819 58.5766 119.857 58.5294 119.875 58.5012L121.361 56.5219C121.775 55.7396 122.085 54.8348 122.236 53.8263C122.584 51.602 122.179 49.3872 121.521 47.4079C121.493 46.8707 120.176 44.1092 119.847 43.5154C119.123 42.1865 118.531 41.2345 117.703 40.113C114.684 36.0508 112.267 38.8311 110.443 39.7642C106.728 41.6775 106.014 36.8425 102.506 37.4928C101.067 37.7567 99.7597 38.6992 98.9322 39.4815C98.0106 40.3486 97.0419 41.1026 96.4683 42.5352L96.4777 42.5258Z" fill="#FDFBF5"/>
<path fill-rule="evenodd" clip-rule="evenodd" d="M70.6632 125.994C71.7165 133.128 73.9735 139.443 76.08 145.899C76.6067 147.501 76.9922 148.981 77.7728 150.423C79.4561 153.533 83.1614 156.483 86.6033 157.454C87.3839 157.671 88.7475 157.662 89.3212 157.944C90.2428 157.2 90.6283 156.992 91.2114 155.513C92.5186 152.205 91.0703 149.622 89.2271 147.275C88.8227 146.757 88.503 146.747 88.0892 146.182C87.713 146.022 87.8259 145.843 87.8165 145.249C87.8165 144.891 87.7977 144.533 87.7883 144.174C87.7601 143.449 87.713 142.742 87.7224 142.016C87.5438 140.093 87.5532 137.935 87.4779 135.984C87.4591 135.409 87.1112 130.31 87.3839 129.943C87.0453 129.066 87.0453 124.316 87.0077 122.902C86.4999 123.373 85.7758 124.891 83.5 126.201C82.2868 126.898 81.8166 126.653 81.1583 125.843L79.6442 124.052C78.6568 123.006 76.1365 122.186 74.7352 123.373L73.0613 125.126C72.4312 125.871 72.0456 126.125 70.6632 125.984V125.994Z" fill="#F5D09A"/>
<path fill-rule="evenodd" clip-rule="evenodd" d="M119.998 138.746C120.43 139.236 120.553 140.122 120.825 140.763C121.126 141.479 121.446 142.007 121.728 142.648C122.123 143.524 119.979 146.776 123.411 151.008C124.813 152.732 125.029 152.44 126.251 153.571C127.446 154.156 128.349 154.665 129.891 154.976C137.903 156.587 143.602 149.236 138.138 142.337C135.656 139.208 132.571 138.915 131.687 138.482C131.537 138.482 131.555 138.567 131.255 138.35L136.859 120.848C135.289 121.564 133.211 122.77 131.01 123.76C128.367 124.948 127.342 125.042 126.11 127.464C125.104 129.443 124.201 131.272 123.158 133.242L120.948 137.511C120.609 138.152 120.346 138.293 120.007 138.755L119.998 138.746Z" fill="#F5D09A"/>
<path fill-rule="evenodd" clip-rule="evenodd" d="M136.85 120.848L131.245 138.35C131.546 138.567 131.527 138.472 131.678 138.482C131.725 136.323 137.856 129.066 139.248 127.407C139.521 127.087 139.765 126.917 140.019 126.597L142.201 124.024C143.969 121.818 146.706 118.746 145.831 115.579C144.759 111.705 144.251 109.424 146.978 105.786C147.204 105.485 147.355 105.249 147.618 104.976C147.919 104.665 148.116 104.523 148.389 104.165C148.972 103.402 149.254 103.27 149.724 102.327C153.11 95.5131 152.48 76.55 150.505 68.6612C149.875 66.1448 148.963 64.4954 148.84 63.9958L147.778 64.1843C147.618 65.5415 150.129 68.6989 150.195 70.8573C150.242 72.3653 149.546 72.0637 148.643 72.3747C146.546 73.1004 149.922 79.2078 148.812 82.3369C148.502 83.2135 148.304 83.6847 147.891 84.467C146.32 87.4359 146.837 87.351 147.975 91.4321C148.342 92.7421 149.066 95.4565 148.333 96.6818C148.003 97.2285 147.251 97.728 146.254 97.5206C145.295 97.3227 144.853 96.7384 144.232 96.5499C143.677 97.9636 143.922 100.961 143.433 102.761C142.399 106.578 139.408 103.449 139.352 103.421C139.54 105.645 141.684 109.83 139.812 112.101C139.069 113.006 138.59 113.138 137.631 112.422C137.781 113.138 138.148 113.816 138.374 114.57C140.057 120.169 137.979 119.707 136.841 120.857L136.85 120.848Z" fill="#D08A25"/>
<path fill-rule="evenodd" clip-rule="evenodd" d="M87.0171 122.902C87.0547 124.316 87.0641 129.066 87.3933 129.943C88.2679 130.395 89.8854 132.167 92.1706 132.676C96.1298 133.562 100.418 128.633 104.048 130.838C105.017 131.423 105.431 131.715 106.615 132.101C107.669 132.44 108.76 132.525 109.775 132.855C109.465 132.393 109.07 132.214 108.506 131.8C106.362 130.273 106.399 131.064 105.581 127.982C104.368 123.458 102.139 126.013 100.117 124.731C98.2081 123.524 97.879 121.112 97.5216 118.331C97.3712 117.191 97.1831 115.485 96.6 114.75C95.6408 113.515 94.6816 115.296 93.8352 115.4C92.6314 114.052 94.7474 110.857 93.9574 109.208C93.4778 109.057 93.2709 109.556 92.8665 110.047C92.5186 110.48 92.3023 110.829 91.7568 111.064C90.2428 111.724 90.3556 109.575 90.3744 108.444L86.4623 108.482L87.0077 122.902H87.0171Z" fill="#D08A25"/>
<path fill-rule="evenodd" clip-rule="evenodd" d="M152.292 12.4598C151.652 13.949 150.223 14.2694 150.383 16.6728C150.702 21.4795 148.709 18.2185 146.518 20.5747C146.179 20.9423 146.028 21.0083 145.681 21.3287C144.806 22.1299 145.135 22.7048 144.834 23.6662C144.402 25.0328 142.568 24.2505 141.373 21.9602C140.743 20.7538 140.123 18.5484 140.17 16.9744C140.226 15.0234 142.793 16.4749 144.317 14.7972C145.342 13.6662 146.574 13.1667 148.304 12.441C148.925 12.1771 153.298 10.1507 152.301 12.4787L152.292 12.4598ZM140.301 29.7924C140.997 30.8292 142.483 31.1873 144.101 31.291C147.373 31.5078 150.919 25.8245 152.254 23.1383C153.401 20.8198 154.22 17.8698 155.273 15.4381C155.969 13.817 158.169 9.2176 158.245 7.5965C158.151 5.99425 156.608 4.0904 154.915 4.48625C154.173 4.66532 152.752 6.38067 150.985 7.2949C147.674 9.00083 143.715 8.71808 140.555 10.3486C139.803 10.735 139.22 11.1874 138.562 11.6493C135.957 13.4494 136.784 14.1752 137.16 15.9942C137.997 20.0752 138.656 26.5408 140.311 29.783L140.301 29.7924Z" fill="#FDFBF5"/>
<path fill-rule="evenodd" clip-rule="evenodd" d="M87.7318 142.007C88.4465 141.545 89.3493 140.612 90.6095 140.574C92.1236 140.527 94.0514 143.251 96.8163 143.251C98.2645 143.251 98.9416 142.393 99.9573 141.894C102.995 140.414 104.227 141.894 106.982 142.44C109.371 142.911 112.916 142.403 115.361 142.214L115.296 140.48C114.995 140.131 114.741 140.131 114.402 139.66C113.8 138.83 112.756 134.212 109.785 132.855C108.769 132.525 107.678 132.44 106.625 132.101C105.44 131.715 105.026 131.432 104.058 130.838C100.427 128.633 96.1392 133.552 92.18 132.676C89.8948 132.167 88.2678 130.395 87.4027 129.943C87.1299 130.31 87.4779 135.409 87.4967 135.984C87.5719 137.935 87.5625 140.093 87.7412 142.016L87.7318 142.007Z" fill="#FBF6EF"/>
<path fill-rule="evenodd" clip-rule="evenodd" d="M62.0772 124.476C61.5035 125.023 61.8609 125.456 62.0772 126.314L65.5473 140.866C68.6037 143.222 72.0363 145.55 72.8826 149.499C73.2494 151.187 72.9955 152.676 73.7478 154.061C74.9422 156.276 80.7069 158.962 85.2586 159H85.4749C86.9795 158.981 88.3337 158.67 89.3306 157.944C88.7569 157.662 87.3933 157.671 86.6128 157.454C83.1614 156.474 79.4656 153.533 77.7822 150.423C77.0017 148.981 76.6161 147.501 76.0895 145.899C73.9829 139.443 71.7259 133.128 70.6726 125.993C69.1115 125.305 67.9172 124.448 66.6665 123.571C65.8483 122.996 65.2088 122.912 64.1179 123.317C63.1775 123.666 62.8013 124.146 62.0772 124.476Z" fill="#B48A5B"/>
<path fill-rule="evenodd" clip-rule="evenodd" d="M52.5225 122.12C52.6071 122.959 54.8171 126.003 55.4002 126.917C55.9644 127.803 57.77 130.97 57.817 132.167C58.3625 132.761 58.701 135.711 58.8233 136.766L62.2182 138.755C62.7354 139.094 63.2809 139.434 63.8451 139.773C64.4752 140.15 64.9454 140.517 65.5473 140.876L62.0771 126.323C61.8703 125.466 61.5129 125.032 62.0771 124.486C61.7668 123.204 60.7417 121.253 60.2527 119.943C59.6885 118.454 59.0772 116.785 58.6352 115.202C57.5725 111.347 57.0929 108.406 56.886 104.118C54.5538 104.373 54.7419 103.458 53.6134 102.488C51.9676 106.107 50.2937 113.251 50.9238 117.652C51.0366 118.472 51.2529 119.339 51.5068 120.093C51.7513 120.819 52.0523 121.517 52.5319 122.12H52.5225Z" fill="#D08A25"/>
<path fill-rule="evenodd" clip-rule="evenodd" d="M29.1154 116.446C29.2941 118.849 28.1373 122.393 27.8834 124.721L28.2878 125.466C29.689 125.277 31.1561 124.872 32.5479 125.447C34.1184 126.097 35.7736 131.611 42.8549 128.482C45.4129 127.351 48.6573 127.247 51.0178 128.783L53.0491 130.584C54.4127 131.884 54.4691 132.299 57.723 132.355L57.8076 132.158C57.77 130.97 55.955 127.794 55.3907 126.908C54.8077 125.994 52.6071 122.949 52.513 122.11C50.4441 122.525 49.0617 124.976 46.7671 121.385C44.5853 117.982 43.6919 120.518 40.6731 120.508C38.0682 120.508 36.7986 118.124 35.5479 116.993C32.4539 114.193 33.3097 117.379 29.106 116.427L29.1154 116.446Z" fill="#FBF6EF"/>
<path fill-rule="evenodd" clip-rule="evenodd" d="M13.9088 111.781C14.4072 116.522 14.9903 121.545 16.7865 125.504C18.7426 129.792 24.9023 132.742 25.4384 133.458C26.8584 132.902 28.3631 132.233 28.9461 130.423C29.1342 129.83 29.0308 129.886 29.2377 129.754C29.0214 129.387 29.2001 128.152 29.0496 127.521C28.8427 126.653 28.6076 126.192 28.2878 125.485L27.8835 124.74C27.4791 124.401 27.0747 123.76 26.6327 123.326C26.1719 122.874 25.7769 122.544 25.1751 122.139C24.3569 121.573 24.5356 121.451 24.3569 120.31C23.7174 116.39 24.5168 111.743 24.7048 108.03C24.6108 107.719 24.7237 107.907 24.5262 107.728C24.2252 108.294 23.2002 109.161 22.4949 109.556C21.2817 110.226 20.8961 110.15 19.4667 109.868C16.937 109.359 16.2787 111.366 13.8994 111.8L13.9088 111.781Z" fill="#F5D09A"/>
<path fill-rule="evenodd" clip-rule="evenodd" d="M49.09 62.959C49.532 63.1286 50.6135 63.8826 50.7545 64.3162C51.0366 65.155 49.8705 65.5132 49.673 66.2106C50.416 66.3426 50.8674 66.1635 51.5445 66.0881C51.441 66.9175 50.8956 67.2002 50.7639 68.0202C52.0241 68.0956 53.7545 65.8525 54.7513 66.1446C54.7325 66.8421 53.9802 67.7563 53.6416 68.2087C53.4347 68.4821 52.5413 69.5565 52.4943 69.9618C52.4191 70.6215 52.4285 69.3209 52.4943 70.1597C52.4943 70.188 52.5131 70.2351 52.5131 70.2634C52.5131 70.2822 52.5319 70.3294 52.5413 70.3671C53.3971 70.5461 54.2153 69.811 54.9018 69.7827C54.7983 70.3388 54.4786 70.9514 54.8642 71.319C55.2403 71.7808 56.3594 71.5452 56.9425 71.63C56.9425 72.6196 56.5475 72.695 56.9425 73.0815C57.9487 73.892 60.9769 71.5358 62.7543 71.6583C63.4032 72.45 63.8922 73.958 64.5787 74.3538C65.143 73.9297 65.2746 73.2605 65.726 72.6573C67.4846 70.3011 67.8796 72.0447 69.1209 73.0438C69.356 72.9495 69.3184 72.9307 69.5817 72.7799L62.1054 57.8789C60.3656 57.9543 57.093 58.9345 55.3908 59.3869C53.209 59.9713 51.1965 60.763 49.1276 61.319L49.0712 62.9684L49.09 62.959Z" fill="#D08A25"/>
<path fill-rule="evenodd" clip-rule="evenodd" d="M49.137 75.1268C49.9269 75.6546 51.1025 75.353 52.0805 75.4473C52.2968 77.0213 52.1933 77.3417 53.8297 76.3427C55.2873 75.4473 55.419 76.4369 55.5036 77.7093C57.1117 78.0486 59.5756 76.6348 60.0082 78.0863C60.0553 78.2465 60.0835 78.6141 60.0929 78.7932C60.1493 79.4341 60.1587 79.6885 60.375 80.254C61.5035 80.2729 62.4627 77.9826 64.5223 78.4539C65.9329 78.7743 65.5285 81.5264 66.4031 82.7422C68.1335 82.8082 68.7824 79.2644 70.1366 78.4916C70.8513 78.8403 71.3779 80.6876 71.7541 81.5358C72.356 82.9025 73.9265 83.713 73.8606 81.4133L69.5911 72.7706C69.3278 72.9214 69.3654 72.9496 69.1303 73.0345C67.889 72.026 67.4846 70.2824 65.7354 72.648C65.284 73.2512 65.1523 73.9204 64.5881 74.3445C63.9016 73.9487 63.4126 72.4407 62.7637 71.649C60.9863 71.5265 57.9581 73.8827 56.9519 73.0722C56.5663 72.6857 56.9519 72.6009 56.9519 71.6207C56.3688 71.5359 55.2497 71.7715 54.8735 71.3097C54.488 70.9421 54.8077 70.3295 54.9112 69.7734C54.2247 69.8111 53.3971 70.5368 52.5507 70.3578C52.5319 70.3295 52.5225 70.2824 52.5225 70.2541C52.5225 70.2352 52.5037 70.1787 52.5037 70.1504C52.4284 69.3116 52.419 70.6122 52.5037 69.9525C52.5507 69.5472 53.4347 68.4728 53.651 68.1994C53.9895 67.747 54.7419 66.8328 54.7607 66.1354C53.7732 65.8432 52.0335 68.0863 50.7733 68.0109C50.905 67.191 51.441 66.8988 51.5539 66.0788C50.8768 66.1542 50.4348 66.3333 49.6824 66.2013C49.8799 65.5133 51.046 65.1457 50.7639 64.3069C50.6228 63.8734 49.532 63.1194 49.0994 62.9497C48.9301 66.9836 49.1182 71.1966 49.1558 75.1174L49.137 75.1268Z" fill="#FBF6EF"/>
<path fill-rule="evenodd" clip-rule="evenodd" d="M158.235 7.60596C158.16 9.21764 155.969 13.8265 155.263 15.4476C154.22 17.8792 153.401 20.8293 152.245 23.1478C150.909 25.8339 147.364 31.5172 144.091 31.3005C142.474 31.1968 140.988 30.8386 140.292 29.8019C139.935 29.9433 139.963 29.8302 139.558 30.6973C138.891 32.1016 139.041 33.4117 138.853 34.7594C139.944 34.2505 140.414 35.7114 140.837 36.39C141.655 37.6718 142.887 37.2759 143.301 37.6246L144.119 36.7293C144.872 35.9941 146.264 35.193 147.129 34.5804C147.806 34.0997 148.464 33.6284 149.113 33.1289L153.505 29.0573C153.834 28.6803 153.919 28.5106 154.295 28.1336C155.922 26.5314 158.978 19.5003 160.107 16.8896C161.254 14.2412 161.141 10.6974 160.567 8.01124C160.06 5.62671 159.505 5.01408 158.348 3.28931C158.263 3.44953 158.113 3.11023 158.395 4.21296C158.658 5.24028 158.687 6.77656 158.216 7.62481L158.235 7.60596Z" fill="#D08A25"/>
<path fill-rule="evenodd" clip-rule="evenodd" d="M75.0738 7.38909C74.0299 2.43153 78.591 7.98287 78.9859 8.35987C79.5126 8.84997 80.3778 9.22697 80.7727 9.74535C81.1583 10.2449 81.5345 11.1591 81.9295 11.7717C83.4435 14.1374 84.036 13.6379 82.6254 15.5889C81.4404 17.2382 79.7665 20.3202 77.8856 20.16C76.3434 18.1619 77.1145 17.4173 77.1897 16.7764C77.2556 16.1449 77.0017 16.1261 76.7477 15.7774C76.1647 14.9857 76.4844 14.5238 75.497 13.8547C74.9327 13.4682 73.9829 13.2986 74.0675 12.2241C74.2274 10.292 75.7697 10.735 75.0738 7.39852V7.38909ZM70.8513 7.31369C71.1052 9.15157 72.0268 11.1874 72.6757 12.8273L75.5158 20.9705C76.2681 23.2702 74.8669 29.7829 78.4875 28.5954C79.616 27.5115 79.7383 25.4474 80.2555 23.5247C81.0549 20.537 81.2618 21.0271 83.0109 19.406C85.8698 16.7764 89.1801 12.4409 84.8918 8.13367C83.1802 6.40889 80.6129 5.37214 78.4029 4.31654C74.6694 2.52578 70.3153 0.942382 70.8513 7.31369Z" fill="#FDFBF5"/>
<path fill-rule="evenodd" clip-rule="evenodd" d="M28.2878 125.475C28.6076 126.192 28.8333 126.653 29.0496 127.511C29.2 128.143 29.0214 129.377 29.2377 129.745C29.8489 129.858 30.385 130.103 30.9868 130.329C33.4131 131.253 33.5166 131.3 35.8864 132.572C38.3503 133.892 39.2531 133.421 41.8863 133.204C45.7232 132.883 48.8266 132.214 52.3908 133.647C54.1588 134.354 58.0333 136.606 58.8233 136.766C58.701 135.711 58.3625 132.761 57.817 132.167L57.7324 132.365C54.4786 132.308 54.4221 131.894 53.0585 130.593L51.0272 128.793C48.6668 127.257 45.4317 127.351 42.8644 128.491C35.783 131.63 34.1279 126.116 32.5574 125.456C31.1655 124.881 29.6985 125.287 28.2972 125.475H28.2878Z" fill="#E4D0B5"/>
<path fill-rule="evenodd" clip-rule="evenodd" d="M73.9641 31.9414C75.3559 32.2902 75.3653 33.0159 76.9076 31.9603C77.5471 31.5267 78.5345 30.4146 79.2868 30.3392C79.127 29.6417 78.7602 29.1045 78.4781 28.5956C74.8669 29.7831 76.2587 23.2704 75.5064 20.9707L72.6663 12.8275C72.0174 11.1876 71.0958 9.15175 70.8419 7.31387L70.2306 6.5316C69.6757 5.66449 68.8576 4.83509 69.2526 3.64754C69.6381 2.45999 71.0299 1.24416 71.3967 0.292236C68.9234 0.999112 66.657 3.83604 66.2338 6.18287C65.7636 8.77475 67.5974 12.4128 68.6789 14.8445C71.8763 22.0452 71.0864 19.425 72.9296 27.2666L73.9641 31.9414Z" fill="#D08A25"/>
<path fill-rule="evenodd" clip-rule="evenodd" d="M29.0589 70.6971C29.4915 70.6594 34.3347 68.2371 35.1623 67.8224C37.1277 66.8328 39.3377 65.8714 41.3972 65.0232C41.764 64.6273 42.6574 64.1467 43.184 63.8168C43.5696 63.5717 44.6041 63.0251 44.9144 62.7423V62.6104C41.5665 62.6575 37.2406 63.3832 34.9648 61.3569C33.761 60.2824 33.7986 58.4822 34.8049 57.1439C35.8394 55.7678 37.1277 55.8809 38.3691 54.9573C37.7202 55.0233 36.2343 55.5228 35.6701 55.749C34.7015 56.1354 34.0055 56.3899 33.0745 56.8517C31.6451 57.5586 29.8207 58.7933 28.8802 60.0562C26.9336 62.6575 26.4069 65.2305 27.6671 68.3973C28.0245 69.3021 28.5605 69.9713 29.0683 70.6971H29.0589Z" fill="#3F7F53"/>
<path fill-rule="evenodd" clip-rule="evenodd" d="M87.7318 142.007C87.7318 142.742 87.7694 143.439 87.7977 144.165C87.8071 144.523 87.8165 144.881 87.8259 145.239C87.8447 145.833 87.7224 146.012 88.0986 146.173C88.8133 145.635 89.9888 144.891 91.1362 144.825C93.7223 144.693 97.973 147.615 102.026 146.879C103.286 146.653 104.17 146.088 105.525 146.022C107.067 145.946 108.205 146.314 109.493 146.418C112.202 146.634 112.634 144.467 115.549 146.031C115.916 146.229 115.869 146.314 116.396 146.418C115.935 144.825 115.568 144.08 115.343 142.214C112.897 142.393 109.352 142.912 106.963 142.44C104.217 141.894 102.976 140.414 99.9385 141.894C98.9228 142.393 98.2457 143.251 96.7975 143.251C94.0326 143.251 92.1048 140.527 90.5907 140.574C89.3305 140.612 88.4183 141.545 87.713 142.007H87.7318Z" fill="#E4D0B5"/>
<path fill-rule="evenodd" clip-rule="evenodd" d="M24.7048 108.02C24.5167 111.724 23.7173 116.371 24.3568 120.301C24.5449 121.441 24.3568 121.564 25.175 122.129C25.7675 122.544 26.1624 122.865 26.6326 123.317C27.0746 123.76 27.479 124.401 27.8834 124.731C28.1373 122.403 29.2846 118.859 29.1153 116.456C30.0934 113.204 28.5887 102.196 27.3474 97.9919C26.5668 95.3435 26.106 94.7497 25.4853 92.9119C25.3631 93.2606 25.6734 99.5754 25.6452 100.763C25.617 101.979 25.0903 107.323 24.7142 108.02H24.7048Z" fill="#D08A25"/>
<path fill-rule="evenodd" clip-rule="evenodd" d="M103.945 47.4831C100.522 47.8601 99.6094 51.0835 101.556 53.7884C103.268 56.1635 106.663 56.9552 109.437 55.8148C112.352 54.6084 114.045 51.517 112.766 49.3021C111.468 47.0684 107.01 47.1438 103.954 47.4831H103.945Z" fill="#3B3B3B"/>
<path fill-rule="evenodd" clip-rule="evenodd" d="M9.47002 111.865L9.77096 112.676C10.1659 114.674 10.8807 116.644 11.238 118.265C11.6706 118.906 12.122 120.631 12.4418 121.498C12.8273 122.544 13.401 123.534 13.7301 124.58C13.89 125.334 13.8994 126.144 14.1063 126.851C14.2944 127.492 14.6235 128.161 14.9245 128.68C16.2505 130.97 18.4416 132.393 20.9432 133.241C21.8177 133.534 22.1751 133.496 23.1814 133.647C24.2534 133.807 24.5356 133.543 25.429 133.458C24.8929 132.742 18.7332 129.792 16.7771 125.503C14.9715 121.545 14.3978 116.521 13.8994 111.781C13.3822 111.281 11.8493 110.376 11.1158 109.867C10.655 109.547 9.22551 107.982 8.88696 107.455L9.46062 111.875L9.47002 111.865Z" fill="#B48A5B"/>
<path fill-rule="evenodd" clip-rule="evenodd" d="M152.292 12.46C153.289 10.132 148.916 12.1584 148.295 12.4223C146.565 13.1574 145.333 13.657 144.307 14.7785C142.793 16.4562 140.217 15.0047 140.16 16.9557C140.113 18.5391 140.734 20.7351 141.364 21.9415C142.558 24.2412 144.392 25.0141 144.825 23.6475C145.126 22.6861 144.806 22.1112 145.671 21.3101C146.019 20.9896 146.17 20.9236 146.508 20.5561C148.699 18.1998 150.693 21.4609 150.373 16.6541C150.213 14.2507 151.643 13.9303 152.282 12.4411L152.292 12.46Z" fill="#E4D0B5"/>
<path fill-rule="evenodd" clip-rule="evenodd" d="M2.05945 106.182C3.02808 107.681 3.89327 109.255 4.93714 110.631C5.35092 111.177 6.17849 112.158 6.78976 112.488C7.89006 113.081 8.73643 112.318 9.46996 111.865L8.89631 107.445C8.37907 106.088 7.87125 105.532 7.5421 103.798C7.26938 102.337 7.16593 100.895 7.0907 99.3585C7.01546 97.7562 7.00606 96.1351 7.02487 94.5329C7.03427 93.8449 7.26938 90.2539 6.865 89.7073C5.81173 92.2332 5.28509 95.1738 4.47633 97.9636L2.05945 106.182Z" fill="#D08A25"/>
<path fill-rule="evenodd" clip-rule="evenodd" d="M77.8856 20.1506C79.7664 20.3202 81.431 17.2382 82.6253 15.5794C84.0265 13.6284 83.4435 14.128 81.9294 11.7623C81.5344 11.1497 81.1582 10.2354 80.7727 9.73591C80.3777 9.21754 79.5125 8.84054 78.9859 8.35043C78.5815 7.97343 74.0299 2.43153 75.0737 7.37966C75.779 10.7161 74.2367 10.2731 74.0675 12.2053C73.9734 13.2797 74.9327 13.4588 75.4969 13.8358C76.4843 14.505 76.1646 14.9668 76.7477 15.7585C77.0016 16.1072 77.2649 16.1261 77.1897 16.7575C77.1144 17.4079 76.3433 18.1525 77.8856 20.1411V20.1506Z" fill="#E4D0B5"/>
<path fill-rule="evenodd" clip-rule="evenodd" d="M115.296 140.489L115.361 142.223C115.578 144.09 115.944 144.844 116.415 146.427C116.678 147.266 117.919 148.953 118.521 149.556C118.737 149.773 118.841 149.792 119.104 150.027C120.863 151.648 123.816 152.959 126.251 153.571C125.029 152.44 124.813 152.732 123.411 151.008C119.979 146.776 122.114 143.524 121.728 142.648C121.446 142.007 121.126 141.479 120.825 140.763C120.552 140.122 120.43 139.236 119.998 138.746C119.349 139.104 118.907 139.584 117.985 139.98C117.195 140.31 116.189 140.461 115.296 140.489Z" fill="#B48A5B"/>
<path fill-rule="evenodd" clip-rule="evenodd" d="M0.39502 112.431C1.27901 113.213 0.68655 113.006 2.46394 114.448C3.28211 115.108 4.16611 115.617 4.71155 116.427C5.54852 117.662 5.68959 117.709 7.52341 117.709C9.41365 117.709 9.69578 117.926 11.2381 118.284C10.8807 116.663 10.166 114.693 9.77101 112.695L9.47008 111.884C8.73655 112.337 7.89017 113.1 6.78988 112.507C6.18801 112.177 5.36044 111.196 4.93725 110.65C3.89338 109.274 3.0282 107.709 2.05956 106.201C1.78684 106.908 0.404424 111.856 0.39502 112.441V112.431Z" fill="#FBF6EF"/>
<path fill-rule="evenodd" clip-rule="evenodd" d="M56.1055 52.5727L55.3438 53.1193C55.8516 53.5717 59.2653 54.0147 60.2245 54.0713C68.867 54.5896 72.1397 48.9441 71.5096 47.9356C69.8262 47.2758 64.5223 48.9441 63.1492 49.4059C60.5913 50.273 58.4283 51.47 56.1055 52.5727Z" fill="#3F7F53"/>
<path fill-rule="evenodd" clip-rule="evenodd" d="M13.7395 124.589C13.401 123.553 12.8273 122.554 12.4512 121.507C12.1314 120.631 11.68 118.915 11.2474 118.275C9.70514 117.916 9.42301 117.7 7.53276 117.7C5.69894 117.7 5.55788 117.662 4.72091 116.418C4.17546 115.607 3.29147 115.098 2.4733 114.439C0.695907 112.997 1.28837 113.204 0.404376 112.422C0.30093 112.62 0.112846 113.336 0.0564204 113.647C0.037612 113.769 0.0188036 113.901 0.00939941 114.024V114.505C0.0752289 115.494 0.526631 116.503 1.23195 117.266C3.15981 119.358 11.6048 124.08 13.7583 124.58L13.7395 124.589Z" fill="#E4D0B5"/>
<path fill-rule="evenodd" clip-rule="evenodd" d="M120.515 30.4522C122.509 29.9244 122.762 32.8368 121.051 33.308C119.01 33.8641 118.201 31.0648 120.515 30.4522ZM120.59 28.9631C114.929 30.537 117.421 38.6614 122.744 37.2477C124.709 36.7293 126.505 34.6275 125.8 31.9979C125.273 30.0187 123.139 28.2562 120.59 28.9631Z" fill="#3B3B3B"/>
<path fill-rule="evenodd" clip-rule="evenodd" d="M95.8101 29.1233C97.8226 28.4729 98.4715 31.2533 96.5342 31.9036C94.5217 32.5822 93.6095 29.8301 95.8101 29.1233ZM96.9856 27.6435C94.738 27.8886 92.8948 29.849 93.2051 32.4597C93.8634 37.9828 102.44 37.0497 101.688 31.2722C101.406 29.1327 99.4871 27.3702 96.9856 27.6435Z" fill="#3B3B3B"/>
<path fill-rule="evenodd" clip-rule="evenodd" d="M73.2023 71.5452C73.4092 70.942 73.6349 69.8298 73.5597 69.1229C73.428 67.8788 72.9108 68.1993 72.055 67.8506C71.2932 66.3803 72.5722 61.9976 72.6286 60.188L72.7415 56.4463C71.0581 56.5971 67.3999 56.8233 65.9705 57.2663C67.1648 59.2738 68.425 62.1578 69.5064 64.3162L72.6192 70.6027C72.8073 70.9797 72.8919 71.253 73.2023 71.5452Z" fill="#D08A25"/>
<path fill-rule="evenodd" clip-rule="evenodd" d="M97.5686 60.3294C98.2269 60.3483 99.0262 60.8195 100.014 60.8572C101.537 60.9137 101.33 60.4331 102.412 61.2719C104.443 62.8459 106.935 63.3925 109.54 62.2804C111.28 61.5358 113.038 64.1277 116.838 62.073C117.477 61.6583 118.004 61.2153 118.531 60.5744C118.822 60.2257 119.659 59.1701 119.725 58.6989C118.86 59.7545 115.201 62.0448 112.935 61.9788C110.443 61.9034 107.001 59.0287 106.662 58.2276C104.603 58.7931 102.703 61.4981 98.8475 59.1607C97.1642 58.1428 94.6345 55.8619 94.6721 52.9402C94.4276 54.4105 94.7567 56.0787 95.2646 57.3228C95.5279 57.9731 95.8288 58.5386 96.2144 59.0193C96.5623 59.4529 97.3429 59.9241 97.578 60.3294H97.5686Z" fill="#3B3B3B"/>
<path fill-rule="evenodd" clip-rule="evenodd" d="M95.3398 43.732L92.7348 47.8131C90.7411 51.2909 90.4966 54.731 92.9699 58.0204C93.9762 59.3587 95.3116 59.9242 97.578 60.3201C97.3335 59.9148 96.5623 59.4341 96.2144 59.01C95.8288 58.5293 95.5279 57.9544 95.2646 57.3135C94.7567 56.0694 94.4276 54.4012 94.6721 52.9309C94.4558 51.0553 94.6627 49.1608 94.973 47.2664C95.3398 45.061 95.7442 44.3447 96.4777 42.5256C96.1203 42.799 96.158 42.799 95.8946 43.1665C95.8288 43.2514 95.7348 43.3927 95.6595 43.4681C95.368 43.7697 95.6031 43.5624 95.3398 43.732Z" fill="#E4D0B5"/>
<path fill-rule="evenodd" clip-rule="evenodd" d="M119.725 58.6896C119.659 59.1703 118.822 60.2259 118.531 60.5652C117.995 61.2061 117.477 61.6491 116.838 62.0638C119.02 61.9601 119.96 61.5925 121.427 60.5463C122.772 59.5944 123.261 58.8875 123.788 56.8235C124.54 53.8546 124.051 51.8565 122.875 49.3683C122.574 48.7274 121.963 48.0205 121.803 47.4267L121.531 47.3984C122.189 49.3871 122.584 51.602 122.245 53.8169C122.085 54.8253 121.785 55.7301 121.371 56.5124L119.885 58.4917C119.885 58.4917 119.828 58.5577 119.81 58.5859C119.791 58.6048 119.753 58.6425 119.734 58.6802L119.725 58.6896Z" fill="#E4D0B5"/>
<path fill-rule="evenodd" clip-rule="evenodd" d="M101.989 21.291C100.851 21.6114 99.3648 23.2608 98.9792 24.5709C98.3209 26.8612 100.512 27.9262 101.471 27.7283C102.186 27.5869 103.089 27.1251 103.606 26.8235C104.481 26.3239 104.772 25.9375 104.65 24.6369C104.462 22.667 103.192 20.9423 101.979 21.291H101.989Z" fill="#FBF6EF"/>
<path fill-rule="evenodd" clip-rule="evenodd" d="M75.8732 85.2869C76.729 87.2662 77.9327 89.4339 78.9295 91.4132L81.2242 95.9938C81.9953 97.53 81.6097 97.351 82.3151 97.2756C83.4906 93.5998 81.5533 90.8571 79.4468 87.7092C78.9672 86.9929 78.2524 85.6262 77.66 85.0136C76.8512 84.9099 76.8324 85.3529 75.8638 85.2775L75.8732 85.2869Z" fill="#5DA272"/>
<path fill-rule="evenodd" clip-rule="evenodd" d="M116.669 22.1016C116.33 22.2618 115.211 23.2138 114.995 23.5342C114.327 24.5144 115.098 27.3419 115.653 28.275C116.198 29.1986 116.772 29.0667 117.806 28.7274C119.8 28.0771 120.477 27.0215 119.762 24.9574C119.377 23.8452 118.963 24.0055 118.427 23.2515C117.947 22.5917 117.825 21.5738 116.678 22.111L116.669 22.1016Z" fill="#FBF6EF"/>
<path fill-rule="evenodd" clip-rule="evenodd" d="M144.9 41.7434C144.862 41.2439 144.392 40.1695 144.185 39.6605C143.772 38.6426 143.762 38.0394 143.32 37.6153C142.906 37.2666 141.674 37.6718 140.856 36.3806C140.424 35.702 139.963 34.2411 138.872 34.7501L138.59 34.9292C138.571 35.834 139.154 36.4654 139.521 37.1817C139.963 38.0583 140.113 40.4239 142.521 40.8198C143.715 41.0177 143.997 41.3476 144.909 41.734L144.9 41.7434Z" fill="#B07312"/>
<path fill-rule="evenodd" clip-rule="evenodd" d="M73.9641 31.9415C73.9829 32.8368 74.4437 34.1846 74.6318 35.0894C74.8293 36.0602 75.1679 37.2949 75.2807 38.3316C76.8324 37.21 76.4844 35.4287 77.3778 34.4202C77.9891 33.7322 78.3089 33.8359 78.7414 32.7426C78.9766 32.1488 79.4938 31.0084 79.2869 30.3486C78.5346 30.424 77.5471 31.5362 76.9076 31.9697C75.3559 33.0159 75.3559 32.2996 73.9641 31.9509V31.9415Z" fill="#B07312"/>
<path fill-rule="evenodd" clip-rule="evenodd" d="M55.212 98.1898C55.4377 98.6233 55.7199 99.0286 56.0114 99.4244C56.2747 99.7826 56.5098 100.197 56.9142 100.405C57.2057 99.4244 57.2434 97.4358 57.4408 96.1257C57.6477 94.7873 58.0427 93.138 58.1367 91.875L55.2026 98.1992L55.212 98.1898Z" fill="#D08A25"/>
<path fill-rule="evenodd" clip-rule="evenodd" d="M95.81 29.1232C93.6094 29.8301 94.5216 32.5822 96.5341 31.9036C98.4714 31.2533 97.8225 28.4729 95.81 29.1232Z" fill="#FDFEFF"/>
<path fill-rule="evenodd" clip-rule="evenodd" d="M120.515 30.4521C118.201 31.0647 119.01 33.8734 121.051 33.3079C122.762 32.8366 122.518 29.9243 120.515 30.4521Z" fill="#FDFEFF"/>
<path fill-rule="evenodd" clip-rule="evenodd" d="M44.9051 62.7424C44.5948 63.0252 43.5697 63.5718 43.1747 63.8169C42.6387 64.1468 41.7453 64.6274 41.3879 65.0233C41.6513 65.1552 44.717 65.8527 45.2907 66.0129L45.3659 62.7707L44.8957 62.7424H44.9051Z" fill="#FBF6EF"/>
<path fill-rule="evenodd" clip-rule="evenodd" d="M54.0178 53.4963L55.3344 53.1193L56.0961 52.5727C56.0303 52.1768 55.9738 52.1203 55.5507 51.9506C55.2309 51.8187 55.0334 51.8092 54.7043 51.9318C54.0366 52.1862 53.8391 52.7423 54.0178 53.5057V53.4963Z" fill="#FEEC38"/>
<path fill-rule="evenodd" clip-rule="evenodd" d="M45.3377 71.7714L45.3095 70.8572C44.9991 71.1305 44.7546 71.253 44.8675 71.6866L45.3283 71.7714H45.3377Z" fill="#FBF6EF"/>
</g>
<defs>
<clipPath id="clip0_86_522">
<rect width="161" height="159" fill="white"/>
</clipPath>
</defs>
</svg>
