<svg width="121" height="38" viewBox="0 0 121 38" fill="none" xmlns="http://www.w3.org/2000/svg">
<path d="M38.344 14C38.2267 14 38.1307 13.9627 38.056 13.888C37.9813 13.8027 37.944 13.7067 37.944 13.6V6.08C37.944 5.96267 37.9813 5.86667 38.056 5.792C38.1307 5.71733 38.2267 5.68 38.344 5.68H45.672C45.7893 5.68 45.8853 5.71733 45.96 5.792C46.0453 5.86667 46.088 5.96267 46.088 6.08V13.6C46.088 13.7067 46.0453 13.8027 45.96 13.888C45.8853 13.9627 45.7893 14 45.672 14H43.784C43.6773 14 43.5813 13.9627 43.496 13.888C43.4213 13.8027 43.384 13.7067 43.384 13.6V7.776H40.632V13.6C40.632 13.7067 40.5947 13.8027 40.52 13.888C40.4453 13.9627 40.3493 14 40.232 14H38.344ZM51.9581 14.16C51.0621 14.16 50.3048 14.016 49.6861 13.728C49.0781 13.44 48.6088 13.0293 48.2781 12.496C47.9581 11.952 47.7768 11.3067 47.7341 10.56C47.7235 10.3467 47.7181 10.1067 47.7181 9.84C47.7181 9.56267 47.7235 9.32267 47.7341 9.12C47.7768 8.36267 47.9688 7.71733 48.3101 7.184C48.6515 6.65067 49.1261 6.24 49.7341 5.952C50.3528 5.664 51.0941 5.52 51.9581 5.52C52.8328 5.52 53.5741 5.664 54.1821 5.952C54.8008 6.24 55.2808 6.65067 55.6221 7.184C55.9635 7.71733 56.1555 8.36267 56.1981 9.12C56.2088 9.32267 56.2141 9.56267 56.2141 9.84C56.2141 10.1067 56.2088 10.3467 56.1981 10.56C56.1555 11.3067 55.9688 11.952 55.6381 12.496C55.3181 13.0293 54.8488 13.44 54.2301 13.728C53.6221 14.016 52.8648 14.16 51.9581 14.16ZM51.9581 12.208C52.4381 12.208 52.7848 12.064 52.9981 11.776C53.2221 11.488 53.3501 11.056 53.3821 10.48C53.3928 10.32 53.3981 10.1067 53.3981 9.84C53.3981 9.57333 53.3928 9.36 53.3821 9.2C53.3501 8.63467 53.2221 8.208 52.9981 7.92C52.7848 7.62133 52.4381 7.472 51.9581 7.472C51.4995 7.472 51.1528 7.62133 50.9181 7.92C50.6941 8.208 50.5715 8.63467 50.5501 9.2C50.5395 9.36 50.5341 9.57333 50.5341 9.84C50.5341 10.1067 50.5395 10.32 50.5501 10.48C50.5715 11.056 50.6941 11.488 50.9181 11.776C51.1528 12.064 51.4995 12.208 51.9581 12.208ZM65.0336 14.16C64.2443 14.16 63.5456 14.016 62.9376 13.728C62.3296 13.44 61.8443 13.024 61.4816 12.48C61.1296 11.9253 60.9376 11.264 60.9056 10.496C60.895 10.3253 60.8896 10.112 60.8896 9.856C60.8896 9.58933 60.895 9.37067 60.9056 9.2C60.9376 8.42133 61.1296 7.76 61.4816 7.216C61.8336 6.66133 62.3136 6.24 62.9216 5.952C63.5403 5.664 64.2443 5.52 65.0336 5.52C65.7696 5.52 66.399 5.62667 66.9216 5.84C67.455 6.04267 67.8816 6.29867 68.2016 6.608C68.5323 6.91733 68.7776 7.23733 68.9376 7.568C69.1083 7.888 69.199 8.17067 69.2096 8.416C69.2203 8.52267 69.183 8.61867 69.0976 8.704C69.0123 8.77867 68.9163 8.816 68.8096 8.816H66.7776C66.6603 8.816 66.5696 8.78933 66.5056 8.736C66.4416 8.68267 66.383 8.60267 66.3296 8.496C66.2016 8.16533 66.0363 7.93067 65.8336 7.792C65.6416 7.65333 65.391 7.584 65.0816 7.584C64.655 7.584 64.3243 7.72267 64.0896 8C63.8656 8.27733 63.743 8.704 63.7216 9.28C63.711 9.70667 63.711 10.0853 63.7216 10.416C63.7536 11.0027 63.8816 11.4293 64.1056 11.696C64.3296 11.9627 64.655 12.096 65.0816 12.096C65.4123 12.096 65.6736 12.0267 65.8656 11.888C66.0576 11.7387 66.2123 11.504 66.3296 11.184C66.383 11.0773 66.4416 10.9973 66.5056 10.944C66.5696 10.8907 66.6603 10.864 66.7776 10.864H68.8096C68.9163 10.864 69.0123 10.9013 69.0976 10.976C69.183 11.0507 69.2203 11.1467 69.2096 11.264C69.199 11.4347 69.1456 11.6427 69.0496 11.888C68.9536 12.1333 68.8043 12.3893 68.6016 12.656C68.399 12.9227 68.1323 13.168 67.8016 13.392C67.4816 13.616 67.0923 13.8027 66.6336 13.952C66.175 14.0907 65.6416 14.16 65.0336 14.16ZM70.5191 14C70.4018 14 70.3005 13.9627 70.2151 13.888C70.1405 13.8027 70.1031 13.7013 70.1031 13.584V12.192C70.1031 11.9573 70.2311 11.824 70.4871 11.792C70.7965 11.76 71.0311 11.616 71.1911 11.36C71.3511 11.104 71.4631 10.7253 71.5271 10.224C71.5911 9.72267 71.6231 9.09333 71.6231 8.336V6.08C71.6231 5.96267 71.6605 5.86667 71.7351 5.792C71.8205 5.71733 71.9165 5.68 72.0231 5.68H78.2951C78.4125 5.68 78.5085 5.71733 78.5831 5.792C78.6685 5.86667 78.7111 5.96267 78.7111 6.08V13.6C78.7111 13.7067 78.6685 13.8027 78.5831 13.888C78.5085 13.9627 78.4125 14 78.2951 14H76.4071C76.3005 14 76.2045 13.9627 76.1191 13.888C76.0445 13.8027 76.0071 13.7067 76.0071 13.6V7.776H74.1831V8.624C74.1831 9.648 74.1298 10.5067 74.0231 11.2C73.9165 11.8933 73.7245 12.4427 73.4471 12.848C73.1698 13.2533 72.7911 13.5467 72.3111 13.728C71.8418 13.9093 71.2445 14 70.5191 14ZM84.4871 14.16C83.2285 14.16 82.2258 13.8187 81.4791 13.136C80.7325 12.4533 80.3431 11.44 80.3111 10.096C80.3111 10.0213 80.3111 9.92533 80.3111 9.808C80.3111 9.69067 80.3111 9.6 80.3111 9.536C80.3431 8.69333 80.5298 7.97333 80.8711 7.376C81.2231 6.768 81.7031 6.30933 82.3111 6C82.9298 5.68 83.6498 5.52 84.4711 5.52C85.4098 5.52 86.1831 5.70667 86.7911 6.08C87.4098 6.45333 87.8738 6.96 88.1831 7.6C88.4925 8.24 88.6471 8.97067 88.6471 9.792V10.176C88.6471 10.2933 88.6098 10.3893 88.5351 10.464C88.4605 10.5387 88.3645 10.576 88.2471 10.576H83.1271C83.1271 10.5867 83.1271 10.6027 83.1271 10.624C83.1271 10.6453 83.1271 10.6667 83.1271 10.688C83.1378 10.9973 83.1911 11.28 83.2871 11.536C83.3938 11.792 83.5431 11.9947 83.7351 12.144C83.9378 12.2933 84.1831 12.368 84.4711 12.368C84.6845 12.368 84.8605 12.336 84.9991 12.272C85.1485 12.1973 85.2711 12.1173 85.3671 12.032C85.4631 11.936 85.5378 11.856 85.5911 11.792C85.6871 11.6747 85.7618 11.6053 85.8151 11.584C85.8791 11.552 85.9751 11.536 86.1031 11.536H88.0871C88.1938 11.536 88.2791 11.568 88.3431 11.632C88.4178 11.696 88.4498 11.7813 88.4391 11.888C88.4285 12.0693 88.3378 12.288 88.1671 12.544C87.9965 12.8 87.7458 13.056 87.4151 13.312C87.0951 13.5573 86.6898 13.76 86.1991 13.92C85.7085 14.08 85.1378 14.16 84.4871 14.16ZM83.1271 8.992H85.8311V8.96C85.8311 8.608 85.7778 8.30933 85.6711 8.064C85.5751 7.808 85.4205 7.61067 85.2071 7.472C85.0045 7.33333 84.7591 7.264 84.4711 7.264C84.1938 7.264 83.9538 7.33333 83.7511 7.472C83.5485 7.61067 83.3938 7.808 83.2871 8.064C83.1805 8.30933 83.1271 8.608 83.1271 8.96V8.992ZM89.9711 15.76C89.8645 15.76 89.7685 15.7173 89.6831 15.632C89.6085 15.5573 89.5711 15.4667 89.5711 15.36V12.304C89.5711 12.1867 89.6085 12.0907 89.6831 12.016C89.7685 11.9413 89.8645 11.904 89.9711 11.904H90.1311C90.4085 11.8933 90.6218 11.7547 90.7711 11.488C90.9311 11.2107 91.0378 10.8107 91.0911 10.288C91.1551 9.75467 91.1871 9.104 91.1871 8.336V6.08C91.1871 5.96267 91.2245 5.86667 91.2991 5.792C91.3845 5.71733 91.4805 5.68 91.5871 5.68H97.8751C97.9925 5.68 98.0885 5.71733 98.1631 5.792C98.2485 5.86667 98.2911 5.96267 98.2911 6.08V11.888H98.9631C99.0805 11.888 99.1765 11.9307 99.2511 12.016C99.3258 12.0907 99.3631 12.1813 99.3631 12.288V15.36C99.3631 15.4667 99.3258 15.5573 99.2511 15.632C99.1765 15.7173 99.0805 15.76 98.9631 15.76H97.0751C96.9578 15.76 96.8618 15.7173 96.7871 15.632C96.7125 15.5573 96.6751 15.4667 96.6751 15.36V14H92.2751V15.36C92.2751 15.4667 92.2325 15.5573 92.1471 15.632C92.0725 15.7173 91.9818 15.76 91.8751 15.76H89.9711ZM93.1871 11.904L95.5871 11.888V7.776H93.7631V8.624C93.7631 9.424 93.7098 10.0907 93.6031 10.624C93.5071 11.1573 93.3685 11.584 93.1871 11.904ZM103.143 14.16C102.567 14.16 102.05 14.0533 101.591 13.84C101.143 13.616 100.786 13.3173 100.519 12.944C100.252 12.5707 100.119 12.1493 100.119 11.68C100.119 10.9227 100.428 10.3253 101.047 9.888C101.666 9.44 102.487 9.136 103.511 8.976L105.511 8.672V8.448C105.511 8.064 105.431 7.77067 105.271 7.568C105.111 7.36533 104.818 7.264 104.391 7.264C104.092 7.264 103.847 7.32267 103.655 7.44C103.474 7.55733 103.33 7.71733 103.223 7.92C103.127 8.05867 102.994 8.128 102.823 8.128H101.031C100.914 8.128 100.823 8.096 100.759 8.032C100.695 7.95733 100.668 7.872 100.679 7.776C100.679 7.584 100.748 7.36533 100.887 7.12C101.036 6.864 101.26 6.61333 101.559 6.368C101.858 6.12267 102.242 5.92 102.711 5.76C103.18 5.6 103.751 5.52 104.423 5.52C105.106 5.52 105.692 5.6 106.183 5.76C106.674 5.92 107.074 6.144 107.383 6.432C107.692 6.72 107.916 7.06133 108.055 7.456C108.204 7.84 108.279 8.26667 108.279 8.736V13.6C108.279 13.7067 108.236 13.8027 108.151 13.888C108.076 13.9627 107.986 14 107.879 14H106.023C105.906 14 105.81 13.9627 105.735 13.888C105.66 13.8027 105.623 13.7067 105.623 13.6V13.04C105.484 13.2427 105.298 13.4293 105.063 13.6C104.828 13.7707 104.551 13.904 104.231 14C103.922 14.1067 103.559 14.16 103.143 14.16ZM103.895 12.336C104.204 12.336 104.482 12.272 104.727 12.144C104.983 12.0053 105.18 11.7973 105.319 11.52C105.468 11.232 105.543 10.8747 105.543 10.448V10.224L104.183 10.464C103.682 10.5493 103.314 10.6827 103.079 10.864C102.855 11.0347 102.743 11.2373 102.743 11.472C102.743 11.6533 102.796 11.808 102.903 11.936C103.01 12.064 103.148 12.1653 103.319 12.24C103.5 12.304 103.692 12.336 103.895 12.336ZM110.405 14C110.319 14 110.245 13.968 110.181 13.904C110.117 13.84 110.085 13.76 110.085 13.664V6C110.085 5.91467 110.117 5.84 110.181 5.776C110.245 5.712 110.319 5.68 110.405 5.68H112.245C112.437 5.68 112.591 5.776 112.709 5.968L114.901 9.856L117.077 5.968C117.194 5.776 117.349 5.68 117.541 5.68H119.397C119.482 5.68 119.557 5.712 119.621 5.776C119.685 5.84 119.717 5.91467 119.717 6V13.664C119.717 13.76 119.685 13.84 119.621 13.904C119.557 13.968 119.477 14 119.381 14H117.397C117.301 14 117.221 13.968 117.157 13.904C117.093 13.84 117.061 13.76 117.061 13.664V8.448L117.845 8.624L115.685 12.4C115.631 12.496 115.567 12.5813 115.493 12.656C115.429 12.72 115.338 12.752 115.221 12.752H114.581C114.463 12.752 114.367 12.72 114.293 12.656C114.218 12.592 114.149 12.5067 114.085 12.4L111.989 8.72L112.725 8.56V13.664C112.725 13.76 112.693 13.84 112.629 13.904C112.565 13.968 112.485 14 112.389 14H110.405ZM43.384 31.512C43.2773 31.512 43.1813 31.4693 43.096 31.384C43.0213 31.3093 42.984 31.2187 42.984 31.112V30.008C41.3947 30.008 40.1573 29.656 39.272 28.952C38.3867 28.2373 37.8853 27.176 37.768 25.768C37.768 25.6827 37.7627 25.5653 37.752 25.416C37.752 25.256 37.752 25.096 37.752 24.936C37.7627 24.776 37.768 24.6587 37.768 24.584C37.8213 23.656 38.0613 22.8773 38.488 22.248C38.9253 21.608 39.528 21.128 40.296 20.808C41.064 20.4773 41.96 20.312 42.984 20.312V19.384C42.984 19.2773 43.0213 19.1867 43.096 19.112C43.1813 19.0267 43.2773 18.984 43.384 18.984H45.464C45.5813 18.984 45.6773 19.0267 45.752 19.112C45.8267 19.1867 45.864 19.2773 45.864 19.384V20.312C46.8987 20.312 47.7947 20.4773 48.552 20.808C49.32 21.128 49.9227 21.608 50.36 22.248C50.7973 22.8773 51.0373 23.656 51.08 24.584C51.1013 24.8187 51.112 25.016 51.112 25.176C51.112 25.3253 51.1013 25.5227 51.08 25.768C50.9733 27.176 50.4773 28.2373 49.592 28.952C48.7067 29.656 47.464 30.008 45.864 30.008V31.112C45.864 31.2187 45.8267 31.3093 45.752 31.384C45.6773 31.4693 45.5813 31.512 45.464 31.512H43.384ZM43 27.688V22.616C42.3173 22.616 41.784 22.776 41.4 23.096C41.016 23.416 40.7973 23.928 40.744 24.632C40.7333 24.8133 40.728 24.9893 40.728 25.16C40.728 25.32 40.7333 25.4907 40.744 25.672C40.776 26.376 40.984 26.888 41.368 27.208C41.7627 27.528 42.3067 27.688 43 27.688ZM45.848 27.688C46.552 27.688 47.096 27.528 47.48 27.208C47.864 26.888 48.072 26.376 48.104 25.672C48.1147 25.5973 48.12 25.496 48.12 25.368C48.12 25.2293 48.12 25.0907 48.12 24.952C48.12 24.8133 48.1147 24.7067 48.104 24.632C48.0507 23.928 47.832 23.416 47.448 23.096C47.0747 22.776 46.5413 22.616 45.848 22.616V27.688ZM56.6278 31.16C55.3691 31.16 54.3664 30.8187 53.6198 30.136C52.8731 29.4533 52.4838 28.44 52.4518 27.096C52.4518 27.0213 52.4518 26.9253 52.4518 26.808C52.4518 26.6907 52.4518 26.6 52.4518 26.536C52.4838 25.6933 52.6704 24.9733 53.0118 24.376C53.3638 23.768 53.8438 23.3093 54.4518 23C55.0704 22.68 55.7904 22.52 56.6118 22.52C57.5504 22.52 58.3238 22.7067 58.9318 23.08C59.5504 23.4533 60.0144 23.96 60.3238 24.6C60.6331 25.24 60.7878 25.9707 60.7878 26.792V27.176C60.7878 27.2933 60.7504 27.3893 60.6758 27.464C60.6011 27.5387 60.5051 27.576 60.3878 27.576H55.2678C55.2678 27.5867 55.2678 27.6027 55.2678 27.624C55.2678 27.6453 55.2678 27.6667 55.2678 27.688C55.2784 27.9973 55.3318 28.28 55.4278 28.536C55.5344 28.792 55.6838 28.9947 55.8758 29.144C56.0784 29.2933 56.3238 29.368 56.6118 29.368C56.8251 29.368 57.0011 29.336 57.1398 29.272C57.2891 29.1973 57.4118 29.1173 57.5078 29.032C57.6038 28.936 57.6784 28.856 57.7318 28.792C57.8278 28.6747 57.9024 28.6053 57.9558 28.584C58.0198 28.552 58.1158 28.536 58.2438 28.536H60.2278C60.3344 28.536 60.4198 28.568 60.4838 28.632C60.5584 28.696 60.5904 28.7813 60.5798 28.888C60.5691 29.0693 60.4784 29.288 60.3078 29.544C60.1371 29.8 59.8864 30.056 59.5558 30.312C59.2358 30.5573 58.8304 30.76 58.3398 30.92C57.8491 31.08 57.2784 31.16 56.6278 31.16ZM55.2678 25.992H57.9718V25.96C57.9718 25.608 57.9184 25.3093 57.8118 25.064C57.7158 24.808 57.5611 24.6107 57.3478 24.472C57.1451 24.3333 56.8998 24.264 56.6118 24.264C56.3344 24.264 56.0944 24.3333 55.8918 24.472C55.6891 24.6107 55.5344 24.808 55.4278 25.064C55.3211 25.3093 55.2678 25.608 55.2678 25.96V25.992ZM57.5238 21.288C57.4171 21.288 57.3264 21.256 57.2518 21.192C57.1878 21.128 57.1558 21.0373 57.1558 20.92V19.464C57.1558 19.3573 57.1878 19.272 57.2518 19.208C57.3264 19.1333 57.4171 19.096 57.5238 19.096H58.9958C59.1024 19.096 59.1878 19.1333 59.2518 19.208C59.3264 19.272 59.3638 19.3573 59.3638 19.464V20.92C59.3638 21.0373 59.3264 21.128 59.2518 21.192C59.1878 21.256 59.1024 21.288 58.9958 21.288H57.5238ZM54.2118 21.288C54.1051 21.288 54.0198 21.256 53.9557 21.192C53.8918 21.128 53.8598 21.0373 53.8598 20.92V19.464C53.8598 19.3573 53.8918 19.272 53.9557 19.208C54.0198 19.1333 54.1051 19.096 54.2118 19.096H55.6838C55.7904 19.096 55.8758 19.1333 55.9398 19.208C56.0144 19.272 56.0518 19.3573 56.0518 19.464V20.92C56.0518 21.0373 56.0144 21.128 55.9398 21.192C55.8758 21.256 55.7904 21.288 55.6838 21.288H54.2118ZM62.1118 32.76C62.0051 32.76 61.9091 32.7173 61.8238 32.632C61.7491 32.5573 61.7118 32.4667 61.7118 32.36V29.304C61.7118 29.1867 61.7491 29.0907 61.8238 29.016C61.9091 28.9413 62.0051 28.904 62.1118 28.904H62.2718C62.5491 28.8933 62.7624 28.7547 62.9118 28.488C63.0718 28.2107 63.1784 27.8107 63.2318 27.288C63.2958 26.7547 63.3278 26.104 63.3278 25.336V23.08C63.3278 22.9627 63.3651 22.8667 63.4398 22.792C63.5251 22.7173 63.6211 22.68 63.7278 22.68H70.0158C70.1331 22.68 70.2291 22.7173 70.3038 22.792C70.3891 22.8667 70.4318 22.9627 70.4318 23.08V28.888H71.1038C71.2211 28.888 71.3171 28.9307 71.3918 29.016C71.4664 29.0907 71.5038 29.1813 71.5038 29.288V32.36C71.5038 32.4667 71.4664 32.5573 71.3918 32.632C71.3171 32.7173 71.2211 32.76 71.1038 32.76H69.2158C69.0984 32.76 69.0024 32.7173 68.9278 32.632C68.8531 32.5573 68.8158 32.4667 68.8158 32.36V31H64.4158V32.36C64.4158 32.4667 64.3731 32.5573 64.2878 32.632C64.2131 32.7173 64.1224 32.76 64.0158 32.76H62.1118ZM65.3278 28.904L67.7278 28.888V24.776H65.9038V25.624C65.9038 26.424 65.8504 27.0907 65.7438 27.624C65.6478 28.1573 65.5091 28.584 65.3278 28.904ZM76.7238 31.16C75.8278 31.16 75.0704 31.016 74.4518 30.728C73.8438 30.44 73.3744 30.0293 73.0438 29.496C72.7238 28.952 72.5424 28.3067 72.4998 27.56C72.4891 27.3467 72.4838 27.1067 72.4838 26.84C72.4838 26.5627 72.4891 26.3227 72.4998 26.12C72.5424 25.3627 72.7344 24.7173 73.0758 24.184C73.4171 23.6507 73.8918 23.24 74.4998 22.952C75.1184 22.664 75.8598 22.52 76.7238 22.52C77.5984 22.52 78.3398 22.664 78.9478 22.952C79.5664 23.24 80.0464 23.6507 80.3878 24.184C80.7291 24.7173 80.9211 25.3627 80.9638 26.12C80.9744 26.3227 80.9798 26.5627 80.9798 26.84C80.9798 27.1067 80.9744 27.3467 80.9638 27.56C80.9211 28.3067 80.7344 28.952 80.4038 29.496C80.0838 30.0293 79.6144 30.44 78.9958 30.728C78.3878 31.016 77.6304 31.16 76.7238 31.16ZM76.7238 29.208C77.2038 29.208 77.5504 29.064 77.7638 28.776C77.9878 28.488 78.1158 28.056 78.1478 27.48C78.1584 27.32 78.1638 27.1067 78.1638 26.84C78.1638 26.5733 78.1584 26.36 78.1478 26.2C78.1158 25.6347 77.9878 25.208 77.7638 24.92C77.5504 24.6213 77.2038 24.472 76.7238 24.472C76.2651 24.472 75.9184 24.6213 75.6838 24.92C75.4598 25.208 75.3371 25.6347 75.3158 26.2C75.3051 26.36 75.2998 26.5733 75.2998 26.84C75.2998 27.1067 75.3051 27.32 75.3158 27.48C75.3371 28.056 75.4598 28.488 75.6838 28.776C75.9184 29.064 76.2651 29.208 76.7238 29.208ZM82.969 34.04C82.8517 34.04 82.7557 33.9973 82.681 33.912C82.6063 33.8373 82.569 33.7467 82.569 33.64V23.08C82.569 22.9627 82.6063 22.8667 82.681 22.792C82.7557 22.7173 82.8517 22.68 82.969 22.68H84.777C84.8837 22.68 84.9743 22.7173 85.049 22.792C85.1343 22.8667 85.177 22.9627 85.177 23.08V23.656C85.433 23.336 85.7637 23.0693 86.169 22.856C86.5743 22.632 87.0703 22.52 87.657 22.52C88.1903 22.52 88.6597 22.6053 89.065 22.776C89.4703 22.936 89.817 23.176 90.105 23.496C90.4037 23.816 90.633 24.2053 90.793 24.664C90.953 25.1227 91.0437 25.6507 91.065 26.248C91.0757 26.4613 91.081 26.6587 91.081 26.84C91.081 27.0213 91.0757 27.2187 91.065 27.432C91.0437 28.008 90.953 28.5253 90.793 28.984C90.633 29.4427 90.409 29.832 90.121 30.152C89.833 30.472 89.481 30.7227 89.065 30.904C88.6597 31.0747 88.1903 31.16 87.657 31.16C87.1343 31.16 86.6757 31.0693 86.281 30.888C85.897 30.696 85.577 30.4293 85.321 30.088V33.64C85.321 33.7467 85.2837 33.8373 85.209 33.912C85.1343 33.9973 85.0383 34.04 84.921 34.04H82.969ZM86.793 29.016C87.1557 29.016 87.4383 28.9413 87.641 28.792C87.8437 28.6427 87.9877 28.44 88.073 28.184C88.169 27.928 88.2277 27.6453 88.249 27.336C88.2703 27.0053 88.2703 26.6747 88.249 26.344C88.2277 26.0347 88.169 25.752 88.073 25.496C87.9877 25.24 87.8437 25.0373 87.641 24.888C87.4383 24.7387 87.1557 24.664 86.793 24.664C86.4517 24.664 86.1743 24.744 85.961 24.904C85.7477 25.0533 85.593 25.2507 85.497 25.496C85.401 25.7413 85.3423 26.008 85.321 26.296C85.3103 26.4987 85.305 26.696 85.305 26.888C85.305 27.08 85.3103 27.2827 85.321 27.496C85.3317 27.7627 85.3903 28.0133 85.497 28.248C85.6037 28.472 85.7637 28.6587 85.977 28.808C86.1903 28.9467 86.4623 29.016 86.793 29.016ZM95.1588 31.16C94.5828 31.16 94.0654 31.0533 93.6068 30.84C93.1588 30.616 92.8014 30.3173 92.5348 29.944C92.2681 29.5707 92.1348 29.1493 92.1348 28.68C92.1348 27.9227 92.4441 27.3253 93.0628 26.888C93.6814 26.44 94.5028 26.136 95.5268 25.976L97.5268 25.672V25.448C97.5268 25.064 97.4468 24.7707 97.2868 24.568C97.1268 24.3653 96.8334 24.264 96.4068 24.264C96.1081 24.264 95.8628 24.3227 95.6708 24.44C95.4894 24.5573 95.3454 24.7173 95.2388 24.92C95.1428 25.0587 95.0094 25.128 94.8388 25.128H93.0468C92.9294 25.128 92.8388 25.096 92.7747 25.032C92.7108 24.9573 92.6841 24.872 92.6948 24.776C92.6948 24.584 92.7641 24.3653 92.9028 24.12C93.0521 23.864 93.2761 23.6133 93.5748 23.368C93.8734 23.1227 94.2574 22.92 94.7268 22.76C95.1961 22.6 95.7668 22.52 96.4388 22.52C97.1214 22.52 97.7081 22.6 98.1988 22.76C98.6894 22.92 99.0894 23.144 99.3988 23.432C99.7081 23.72 99.9321 24.0613 100.071 24.456C100.22 24.84 100.295 25.2667 100.295 25.736V30.6C100.295 30.7067 100.252 30.8027 100.167 30.888C100.092 30.9627 100.001 31 99.8948 31H98.0388C97.9214 31 97.8254 30.9627 97.7508 30.888C97.6761 30.8027 97.6388 30.7067 97.6388 30.6V30.04C97.5001 30.2427 97.3134 30.4293 97.0788 30.6C96.8441 30.7707 96.5668 30.904 96.2468 31C95.9374 31.1067 95.5748 31.16 95.1588 31.16ZM95.9108 29.336C96.2201 29.336 96.4974 29.272 96.7428 29.144C96.9988 29.0053 97.1961 28.7973 97.3348 28.52C97.4841 28.232 97.5588 27.8747 97.5588 27.448V27.224L96.1988 27.464C95.6974 27.5493 95.3294 27.6827 95.0948 27.864C94.8708 28.0347 94.7588 28.2373 94.7588 28.472C94.7588 28.6533 94.8121 28.808 94.9188 28.936C95.0254 29.064 95.1641 29.1653 95.3348 29.24C95.5161 29.304 95.7081 29.336 95.9108 29.336Z" fill="#F7AF4A"/>
<path d="M18.9267 32.6436C19.9025 32.4893 20.8335 32.634 21.6892 33.0352C28.1657 35.2585 31.3693 25.3093 24.9502 23.0595C23.5231 22.3572 22.9713 21.956 22.5408 20.4159C21.8886 18.0827 19.0078 16.7803 16.5904 17.1695C14.173 17.5588 11.8129 19.7052 11.8795 22.1327C11.9234 23.735 11.5155 24.2908 10.3638 25.4083C4.91259 29.5697 10.8972 38.04 16.4107 33.8852C17.1082 33.2339 17.9517 32.8034 18.9267 32.6436Z" fill="#F7AF4A"/>
<path d="M8.07615 24.6528C6.23044 26.0032 4.06539 25.2429 3.12469 23.118C2.18399 20.993 2.74708 18.1888 4.67018 16.9581C7.27759 15.2888 11.1302 22.4188 8.07615 24.6528Z" fill="#F7AF4A"/>
<path d="M20.3325 14.4911C22.5401 14.6904 23.8707 12.6919 23.487 10.1151C23.1033 7.53842 21.1466 5.19987 18.9416 5.15981C15.9514 5.10578 16.6807 14.1608 20.3325 14.4911Z" fill="#F7AF4A"/>
<path d="M12.2481 15.7929C10.204 16.6769 8.34736 15.1916 7.95325 12.6165C7.55914 10.0415 8.73362 7.19872 10.8221 6.46728C13.6544 5.47564 15.6292 14.3301 12.2481 15.7929Z" fill="#F7AF4A"/>
<path d="M26.9182 21.6183C29.0744 22.3243 30.9125 20.9193 31.1822 18.5995C31.4518 16.2797 30.0888 13.7856 27.8941 13.218C24.9184 12.4478 23.3506 20.4506 26.9182 21.6183Z" fill="#F7AF4A"/>
</svg>
